<svg width="20" height="18" viewBox="0 0 20 18" fill="none" xmlns="http://www.w3.org/2000/svg">
<path id="Vector" d="M1.76367 16.3409H3.49094M3.49094 16.3409H12.1273M3.49094 16.3409V4.42286C3.49094 3.4555 3.49094 2.97146 3.67921 2.60197C3.84481 2.27697 4.10885 2.01292 4.43386 1.84732C4.80334 1.65906 5.28739 1.65906 6.25475 1.65906H9.36384C10.3312 1.65906 10.8142 1.65906 11.1837 1.84732C11.5087 2.01292 11.7736 2.27697 11.9392 2.60197C12.1273 2.9711 12.1273 3.45455 12.1273 4.42003V9.43178M12.1273 16.3409H17.3091M12.1273 16.3409V9.43178M17.3091 16.3409H19.0364M17.3091 16.3409V9.43178C17.3091 8.62698 17.309 8.22477 17.1776 7.90735C17.0022 7.48412 16.6663 7.14766 16.2431 6.97236C15.9257 6.84088 15.5228 6.84088 14.718 6.84088C13.9132 6.84088 13.5108 6.84088 13.1934 6.97236C12.7701 7.14766 12.4341 7.48412 12.2588 7.90735C12.1273 8.22477 12.1273 8.62698 12.1273 9.43178M6.08185 7.70451H9.5364M6.08185 5.1136H9.5364" stroke="#5A5A5A" stroke-width="1.6" stroke-linecap="round" stroke-linejoin="round"/>
</svg>
