<svg width="44" height="46" viewBox="0 0 44 46" fill="none" xmlns="http://www.w3.org/2000/svg">
<g id="cmwlogo (1) 1" clip-path="url(#clip0_2033_85)">
<g id="Clip path group">
<mask id="mask0_2033_85" style="mask-type:luminance" maskUnits="userSpaceOnUse" x="0" y="0" width="44" height="46">
<g id="clip0_188_3062">
<path id="Vector" d="M44 0.661621H0V45.3385H44V0.661621Z" fill="white"/>
</g>
</mask>
<g mask="url(#mask0_2033_85)">
<g id="Group">
<path id="Vector_2" d="M26.3301 5.41968L26.8854 23.3961L41.6354 13.9324L26.3301 5.41968Z" fill="#333333"/>
<path id="Vector_3" d="M41.5309 32.7551V13.8619L20.395 27.4678V45.3387H21.1065" fill="#494949"/>
<path id="Vector_4" d="M3.18896 32.0419L16.7155 23.3629L17.2247 39.8485L3.18896 32.0419Z" fill="url(#paint0_linear_2033_85)"/>
<path id="Vector_5" d="M3.18896 32.0419L16.7155 23.3629L17.2247 39.8485L3.18896 32.0419Z" fill="url(#paint1_linear_2033_85)"/>
<path id="Vector_6" d="M3.18896 32.0419L16.7155 23.3629L17.2247 39.8485L3.18896 32.0419Z" stroke="url(#paint2_linear_2033_85)" stroke-width="0.846154"/>
<path id="Vector_7" d="M3.18896 32.0419L16.7155 23.3629L17.2247 39.8485L3.18896 32.0419Z" stroke="url(#paint3_linear_2033_85)" stroke-width="0.846154"/>
<path id="Vector_8" d="M2.46924 13.2451V32.1381L23.6053 18.5501V0.661621H22.8938" fill="url(#paint4_linear_2033_85)"/>
<path id="Vector_9" d="M2.46924 13.2451V32.1381L23.6053 18.5501V0.661621H22.8938" fill="url(#paint5_linear_2033_85)"/>
</g>
</g>
</g>
</g>
<defs>
<linearGradient id="paint0_linear_2033_85" x1="2.36514" y1="31.5921" x2="17.6705" y2="31.5921" gradientUnits="userSpaceOnUse">
<stop stop-color="#00AAFF"/>
<stop offset="1" stop-color="#8636F8"/>
</linearGradient>
<linearGradient id="paint1_linear_2033_85" x1="10.0179" y1="40.5806" x2="10.0179" y2="22.6037" gradientUnits="userSpaceOnUse">
<stop stop-color="white" stop-opacity="0.6"/>
<stop offset="0.1085" stop-color="white" stop-opacity="0.455"/>
<stop offset="0.4332" stop-color="white" stop-opacity="0.216"/>
<stop offset="0.6639" stop-color="white" stop-opacity="0.06"/>
<stop offset="0.775" stop-color="white" stop-opacity="0"/>
</linearGradient>
<linearGradient id="paint2_linear_2033_85" x1="2.36514" y1="31.5921" x2="17.6705" y2="31.5921" gradientUnits="userSpaceOnUse">
<stop stop-color="#00AAFF"/>
<stop offset="1" stop-color="#8636F8"/>
</linearGradient>
<linearGradient id="paint3_linear_2033_85" x1="10.0179" y1="40.5806" x2="10.0179" y2="22.6037" gradientUnits="userSpaceOnUse">
<stop stop-color="white" stop-opacity="0.6"/>
<stop offset="0.1085" stop-color="white" stop-opacity="0.455"/>
<stop offset="0.4332" stop-color="white" stop-opacity="0.216"/>
<stop offset="0.6639" stop-color="white" stop-opacity="0.06"/>
<stop offset="0.775" stop-color="white" stop-opacity="0"/>
</linearGradient>
<linearGradient id="paint4_linear_2033_85" x1="1.59279" y1="20.0785" x2="24.8934" y2="18.3851" gradientUnits="userSpaceOnUse">
<stop offset="0.0226" stop-color="#8636F8"/>
<stop offset="0.3484" stop-color="#F020B3"/>
<stop offset="0.6742" stop-color="#F8475E"/>
<stop offset="1" stop-color="#FF9421"/>
</linearGradient>
<linearGradient id="paint5_linear_2033_85" x1="13.0373" y1="32.1381" x2="13.0373" y2="0.661621" gradientUnits="userSpaceOnUse">
<stop stop-color="white" stop-opacity="0.6"/>
<stop offset="0.0842" stop-color="white" stop-opacity="0.455"/>
<stop offset="0.367" stop-color="white" stop-opacity="0.216"/>
<stop offset="0.568" stop-color="white" stop-opacity="0.06"/>
<stop offset="0.6648" stop-color="white" stop-opacity="0"/>
</linearGradient>
<clipPath id="clip0_2033_85">
<rect width="44" height="44.6769" fill="white" transform="translate(0 0.661621)"/>
</clipPath>
</defs>
</svg>
